<?xml version="1.0" encoding="UTF-8"?>
<!DOCTYPE svg PUBLIC "-//W3C//DTD SVG 1.0//EN" "http://www.w3.org/TR/2001/REC-SVG-20010904/DTD/svg10.dtd">
<!-- Creator: CorelDRAW 2018 (64-Bit) -->
<svg xmlns="http://www.w3.org/2000/svg" xml:space="preserve" width="904px" height="501px" version="1.0" style="shape-rendering:geometricPrecision; text-rendering:geometricPrecision; image-rendering:optimizeQuality; fill-rule:evenodd; clip-rule:evenodd"
viewBox="0 0 462.2 256.26"
 xmlns:xlink="http://www.w3.org/1999/xlink">
 <defs>
  <style type="text/css">
   <![CDATA[
    .fil0 {fill:white}
   ]]>
  </style>
 </defs>
 <g id="Слой_x0020_1">
  <metadata id="CorelCorpID_0Corel-Layer"/>
  <path class="fil0" d="M195.18 0c0.76,7.83 2.18,13 3.47,18.18 0.32,1.29 -0.21,6.69 1.43,7.27 12.28,4.35 40.74,6.88 60.74,32.52 5.57,7.14 8.1,17.98 11.64,23.76 2.19,3.58 4.13,2.95 9.35,5.16 10.23,4.35 7.22,8.19 1.82,14.87 -5.1,6.31 -7.82,9.4 -13.94,14.62 -11.91,15.51 -17.32,15.41 -34.13,22.47 -2.57,1.35 -5.14,2.71 -7.71,4.06 -8.69,5.76 -12.92,21.91 -4.25,29.12 1.93,1.73 2.8,2.36 3.52,4.8 1.16,3.92 0.5,8.57 -3.06,10.81 -4.22,2.13 -4.67,10.34 -0.31,12.03 -0.51,0.27 -0.42,0.88 -0.93,1.15 -78.74,0 24.06,0 -56.47,0 -0.53,-0.27 -0.44,-0.88 -0.97,-1.15 4.55,-1.69 4.06,-9.9 -0.33,-12.03 -3.71,-2.24 -4.4,-6.89 -3.19,-10.81 0.75,-2.44 1.65,-3.07 3.67,-4.8 9.05,-7.21 4.63,-23.36 -4.43,-29.12 -2.68,-1.35 -5.37,-2.71 -8.05,-4.06 -17.54,-7.06 -23.19,-6.96 -35.61,-22.47 -6.39,-5.22 -9.23,-8.31 -14.55,-14.62 -5.63,-6.68 -8.77,-10.52 1.91,-14.87 5.44,-2.21 7.46,-1.58 9.75,-5.16 3.69,-5.78 6.34,-16.62 12.15,-23.76 20.87,-25.64 50.11,-28.17 62.94,-32.52 1.7,-0.58 1.15,-5.98 1.48,-7.27 1.35,-5.18 3.4,-10.35 4.06,-18.18zm253.71 229.05l-5.15 0 6.46 8.92 -6.57 8.71 4.99 0 3.96 -5.51 4.04 5.51 5.1 0 -6.29 -8.71 6.77 -8.92 -4.95 0 -4.2 5.79 -4.16 -5.79zm-13.78 0l-4.56 0 0 1.35c-1.1,-1.03 -2.77,-1.74 -5.38,-1.74 -5.11,0 -8.79,3.64 -8.79,9.23 0,5.7 4.27,9.15 9.03,9.15 2.45,0 4.08,-0.84 5.14,-1.75l0 1.39 4.56 0 0 -17.63zm-4.56 11.85c-1.26,1.3 -2.65,1.94 -4.27,1.94 -3.13,0 -5.19,-2.06 -5.19,-4.95 0,-3.17 2.06,-4.99 4.95,-4.99 2.1,0 3.45,0.67 4.51,1.86l0 6.14zm-23.48 -20.99l-4.56 0 0 26.77 4.56 0 0 -26.77zm-13.86 19.24c0,-0.51 0,-1.5 -0.04,-2.21 -0.32,-4.88 -3.81,-8.28 -8.76,-8.28 -5.38,0 -9.27,3.84 -9.27,9.23 0,5.42 4.24,9.15 9.55,9.15 3.29,0 5.39,-1.03 7.64,-3.25l-3.01 -2.85c-1.22,1.34 -2.73,1.9 -4.43,1.9 -2.5,0 -4.72,-1.63 -5.03,-3.69l13.35 0zm-9 -6.53c2.54,0 3.77,1.39 4.36,3.17l-8.59 0c0.43,-1.63 1.62,-3.17 4.23,-3.17zm-33.5 3.48l3.44 0 7.25 10.58 5.82 0 -7.96 -11.21c3.05,-1.07 5.35,-4 5.35,-7.72 0,-4.95 -3.57,-7.84 -8.56,-7.84l-10.21 0 0 26.77 4.87 0 0 -10.58zm0 -4.39l0 -7.41 4.87 0c2.53,0 4.04,1.15 4.04,3.57 0,2.53 -1.39,3.84 -3.76,3.84l-5.15 0zm-52.95 -2.66l-4.76 0 7.73 17.97 -3.81 8.89 4.68 0 11.36 -26.86 -4.67 0 -5.19 12.7 -5.34 -12.7zm-21.07 -0.39c-5.71,0 -9.59,4 -9.59,9.15 0,4.99 3.72,9.23 9.59,9.23 5.86,0 9.58,-4.32 9.58,-9.47 0,-5.15 -3.88,-8.91 -9.58,-8.91zm0 4.24c3,0 4.91,1.94 4.91,4.83 0,2.89 -2.02,5.07 -4.91,5.07 -2.9,0 -4.92,-1.86 -4.92,-4.91 0,-3.05 1.9,-4.99 4.92,-4.99zm-24.28 -8.6c0,1.43 1.22,2.58 2.69,2.58 1.5,0 2.69,-1.15 2.69,-2.58 0,-1.42 -1.19,-2.57 -2.69,-2.57 -1.47,0 -2.69,1.15 -2.69,2.57zm0.43 25.35c0,1.58 -0.55,2.45 -2.1,2.45 -0.71,0 -1.7,-0.19 -2.93,-0.63l0 4.12c1.39,0.51 2.58,0.67 3.84,0.67 4.04,0 5.79,-2.81 5.79,-6.45l0 -20.76 -4.6 0 0 20.6zm-14.97 -2.97l4.6 0 0 -10.73c0,-4.72 -3.73,-7.29 -7.37,-7.29 -2.3,0 -3.96,0.87 -4.91,1.7l0 -1.31 -4.6 0 0 17.63 4.6 0 0 -11.96c0.79,-1.07 2.41,-1.86 3.96,-1.86 1.98,0 3.72,1.42 3.72,3.96l0 9.86zm-22.18 -4.36l-13.31 0 0 -7.05 12.44 0 0 -4.35 -12.44 0 0 -6.62 12.84 0 0 -4.39 -17.71 0 0 26.77 18.18 0 0 -4.36zm-52.44 -3.17c0,-0.51 0,-1.5 -0.04,-2.21 -0.31,-4.88 -3.8,-8.28 -8.75,-8.28 -5.39,0 -9.27,3.84 -9.27,9.23 0,5.42 4.24,9.15 9.55,9.15 3.29,0 5.38,-1.03 7.64,-3.25l-3.01 -2.85c-1.23,1.34 -2.73,1.9 -4.43,1.9 -2.5,0 -4.72,-1.63 -5.03,-3.69l13.34 0zm-8.99 -6.53c2.54,0 3.77,1.39 4.36,3.17l-8.6 0c0.44,-1.63 1.63,-3.17 4.24,-3.17zm-15.6 -3.33c-1.03,-0.43 -1.86,-0.63 -2.89,-0.63 -1.83,0 -3.05,0.91 -3.96,2.1l0 -1.75 -4.6 0 0 17.67 4.6 0 0 -11.56c0.67,-1.39 1.82,-2.26 3.44,-2.26 1.31,0 2.46,0.39 3.41,1.03l0 -4.6zm-30.34 -0.63c-5.7,0 -9.59,4 -9.59,9.15 0,4.99 3.73,9.23 9.59,9.23 5.86,0 9.58,-4.32 9.58,-9.47 0,-5.15 -3.88,-8.91 -9.58,-8.91zm0 4.24c3.01,0 4.91,1.94 4.91,4.83 0,2.89 -2.02,5.07 -4.91,5.07 -2.89,0 -4.91,-1.86 -4.91,-4.91 0,-3.05 1.9,-4.99 4.91,-4.99zm-18.89 -12.99l-4.56 0 0 26.77 4.56 0 0 -26.77zm-27.85 9.14l-4.59 0 0 26.86 4.59 0 0 -10.66c1.15,1.15 3.21,1.79 5.15,1.79 3.88,0 8.83,-3.33 8.83,-9.31 0,-5.98 -4.23,-9.07 -8.59,-9.07 -2.3,0 -4.28,0.83 -5.39,1.7l0 -1.31zm0 5.67c1.07,-1.15 2.66,-1.82 4.48,-1.82 2.89,0 4.75,1.98 4.75,4.99 0,3.01 -2.1,4.95 -4.63,4.95 -1.78,0 -3.49,-0.64 -4.6,-1.94l0 -6.18zm-26.41 -5.67l-5.15 0 6.45 8.92 -6.57 8.71 4.99 0 3.96 -5.51 4.04 5.51 5.11 0 -6.3 -8.71 6.77 -8.92 -4.95 0 -4.2 5.79 -4.15 -5.79zm-13.59 13.27l-13.31 0 0 -7.05 12.44 0 0 -4.35 -12.44 0 0 -6.62 12.84 0 0 -4.39 -17.71 0 0 26.77 18.18 0 0 -4.36zm438.83 -39.64l-12.5 0 0 -25.39c-0.13,-3.36 -0.9,-5.58 -2.32,-6.68 -1.23,-0.91 -3.46,-1.36 -6.69,-1.36l-5.81 0 0 30.04 3.49 0 0 3.48 -12.69 0 0 -33.62 -3.88 0 0 -3.19 26.16 0c7.3,0 10.95,3.71 10.95,11.14l0 11.24 0 10.95 3.29 0 0 3.39zm-53.48 0.19c-1.42,0 -2.26,-0.71 -2.52,-2.13 -0.13,-0.58 -0.22,-1.16 -0.29,-1.74 -0.06,-0.59 -0.13,-1.17 -0.19,-1.75l-5.82 4.26c-2.06,1.17 -4.42,1.75 -7.07,1.75 -4,0 -6.59,-1.68 -7.75,-5.04 -0.58,-1.61 -0.87,-4.84 -0.87,-9.69 0,-4 0.55,-6.81 1.64,-8.43 1.49,-2.26 4.46,-3.39 8.92,-3.39l10.95 0 0 -2.81c0,-3.16 -1.55,-4.75 -4.65,-4.75l-11.24 0 0 -3.29 15.79 0.1c3.29,0 5.6,0.64 6.93,1.93 1.32,1.3 1.98,3.59 1.98,6.88l0 23.06c0,1.49 0.78,2.23 2.33,2.23 0.45,0 0.81,-0.03 1.06,-0.1l0 2.81 -9.2 0.1zm-2.91 -23.35c-2.13,-0.06 -5.13,-0.06 -9.01,0 -2.65,0.2 -3.97,2.91 -3.97,8.14 0,3.81 0.1,6.1 0.29,6.88 0.65,2.32 2.52,3.49 5.62,3.49 0.97,0 2.36,-0.62 4.17,-1.84 1.87,-1.3 2.81,-2.36 2.81,-3.2l0.09 -13.47zm-26.45 23.16l-11.91 0 0 -26.55c-0.13,-3.29 -0.88,-5.36 -2.23,-6.2 -0.91,-0.52 -3.14,-0.78 -6.69,-0.78 -0.97,0 -2.29,0.62 -3.97,1.85 0.52,1.35 0.77,3.22 0.77,5.61l0 11.44 0 11.24 3.11 0 0 3.39 -12.5 0 0 -26.55c-0.13,-3.29 -0.49,-5.23 -1.07,-5.81 -0.71,-0.71 -2.71,-1.07 -6.01,-1.07l-5.81 0 0 29.94 3.49 0 0 3.58 -12.89 0 0 -33.62 -3.78 0 -0.09 -3.19 24.41 0c3.75,0 6.53,0.8 8.34,2.42 1.8,-1.62 3.68,-2.42 5.61,-2.42l7.56 0c7.24,0 10.85,3.49 10.85,10.46l0 11.53 0 11.34 2.81 0 0 3.39zm-65.4 -32.36c0,9.62 -3.29,17.66 -9.88,24.12 -6.52,6.46 -14.69,9.69 -24.51,9.69 -9.88,0 -18.09,-3.23 -24.61,-9.69 -6.59,-6.46 -9.88,-14.5 -9.88,-24.12 0,-9.56 3.29,-17.6 9.88,-24.13 6.52,-6.46 14.73,-9.69 24.61,-9.69 9.82,0 17.99,3.23 24.51,9.69 6.59,6.53 9.88,14.57 9.88,24.13zm-10.65 0c0,-8.21 -2.2,-15.18 -6.59,-20.93 -4.33,-5.68 -9.98,-8.53 -16.96,-8.53 -6.91,0 -12.59,2.85 -17.05,8.53 -4.39,5.75 -6.59,12.72 -6.59,20.93 0,8.2 2.2,15.18 6.59,20.92 4.46,5.62 10.14,8.43 17.05,8.43 6.91,0 12.57,-2.81 16.96,-8.43 4.39,-5.74 6.59,-12.72 6.59,-20.92zm-186.71 32.45c-5.62,0 -10.01,-2.06 -13.17,-6.2 -2.72,-3.48 -4.07,-7.71 -4.07,-12.69 0,-6.2 1.97,-11.08 5.91,-14.63 3.81,-3.42 8.75,-5.13 14.82,-5.13 1.55,0 3.1,0.32 4.65,0.96l4.26 1.85c-0.12,0 -0.12,-6.88 0,-20.64l-2.9 0 0 -2.81 12.21 0 0 55.71 4.06 0 0 3.58 -25.77 0zm12.4 -28.19c0,-2.91 -1.16,-4.91 -3.48,-6.01 -1.3,-0.58 -3.36,-0.87 -6.2,-0.87 -3.62,0 -6.46,1.71 -8.53,5.14 -1.49,2.64 -2.23,5.68 -2.23,9.1 0,4.14 0.94,7.72 2.81,10.76 2.46,3.81 5.98,6.01 10.56,6.59 1.62,0.19 3.94,0.19 6.98,0l0.09 -24.71zm-48.54 28.19l0 -61.52 -3.97 0 0 -3.39 13.37 0 0 61.52 4.65 0 0 3.39 -14.05 0zm-9.78 -32.45c0,9.62 -3.3,17.66 -9.89,24.12 -6.52,6.46 -14.69,9.69 -24.51,9.69 -9.88,0 -18.08,-3.23 -24.61,-9.69 -6.59,-6.46 -9.88,-14.5 -9.88,-24.12 0,-9.56 3.29,-17.6 9.88,-24.13 6.53,-6.46 14.73,-9.69 24.61,-9.69 9.82,0 17.99,3.23 24.51,9.69 6.59,6.53 9.89,14.57 9.89,24.13zm-10.66 0c0,-8.21 -2.2,-15.18 -6.59,-20.93 -4.33,-5.68 -9.98,-8.53 -16.95,-8.53 -6.92,0 -12.6,2.85 -17.06,8.53 -4.39,5.75 -6.58,12.72 -6.58,20.93 0,8.2 2.19,15.18 6.58,20.92 4.46,5.62 10.14,8.43 17.06,8.43 6.91,0 12.56,-2.81 16.95,-8.43 4.39,-5.74 6.59,-12.72 6.59,-20.92zm83.84 -107.4c6.7,-0.86 6.2,3.6 8.06,9.78 0.55,2.18 -1.35,3.69 -4.89,3.55 -3.52,-0.13 -8.17,0.36 -11.57,0.78 -1.41,0.17 -7.98,1.58 -8.17,1.55 -1.71,-0.24 4.53,-14.11 16.57,-15.66zm92.39 -0.1c-6.48,-0.1 -7.17,3.91 -8.95,10.09 -0.53,2.19 1.29,3.69 4.68,3.56 3.37,-0.13 7.84,0.35 11.1,0.78 1.35,0.17 12.54,2.52 12.71,2.5 1.64,-0.24 -0.92,-16.62 -19.54,-16.93zm-47.89 -4.94c8.49,-0.38 19.33,8.96 21.18,15.34 0.5,2 -26.16,0.59 -30.48,0.66 -1.41,0.03 -10.53,0.04 -10.71,0 -1.71,-0.42 7.31,-15.44 20.01,-16z"/>
 </g>
</svg>
